<mxfile host="app.diagrams.net" agent="Mozilla/5.0 (X11; Linux x86_64) AppleWebKit/537.36 (KHTML, like Gecko) Chrome/141.0.0.0 Safari/537.36" version="28.2.5">
  <diagram name="Página-1" id="XpMmanXdB5qitEVBGd2q">
    <mxGraphModel dx="1426" dy="679" grid="1" gridSize="10" guides="1" tooltips="1" connect="1" arrows="1" fold="1" page="1" pageScale="1" pageWidth="827" pageHeight="1169" math="0" shadow="0">
      <root>
        <mxCell id="0" />
        <mxCell id="1" parent="0" />
        <mxCell id="OJxwPTO8iqBb-8ecXSKR-1" value="VISTA" style="rounded=0;whiteSpace=wrap;html=1;" vertex="1" parent="1">
          <mxGeometry x="120" y="20" width="120" height="60" as="geometry" />
        </mxCell>
        <mxCell id="OJxwPTO8iqBb-8ecXSKR-2" value="CONTROLADOR" style="rounded=0;whiteSpace=wrap;html=1;" vertex="1" parent="1">
          <mxGeometry x="320" y="20" width="120" height="60" as="geometry" />
        </mxCell>
        <mxCell id="OJxwPTO8iqBb-8ecXSKR-3" value="MODELO" style="rounded=0;whiteSpace=wrap;html=1;" vertex="1" parent="1">
          <mxGeometry x="520" y="20" width="120" height="60" as="geometry" />
        </mxCell>
        <mxCell id="OJxwPTO8iqBb-8ecXSKR-11" value="" style="ellipse;whiteSpace=wrap;html=1;aspect=fixed;fillStyle=solid;fillColor=light-dark(#FFFFFF,#121212);" vertex="1" parent="1">
          <mxGeometry x="170" y="930" width="20" height="20" as="geometry" />
        </mxCell>
        <mxCell id="OJxwPTO8iqBb-8ecXSKR-43" style="edgeStyle=orthogonalEdgeStyle;rounded=0;orthogonalLoop=1;jettySize=auto;html=1;exitX=0.5;exitY=1;exitDx=0;exitDy=0;entryX=0.5;entryY=0;entryDx=0;entryDy=0;" edge="1" parent="1" source="OJxwPTO8iqBb-8ecXSKR-33" target="OJxwPTO8iqBb-8ecXSKR-35">
          <mxGeometry relative="1" as="geometry" />
        </mxCell>
        <mxCell id="OJxwPTO8iqBb-8ecXSKR-33" value="vista prestatarios" style="rounded=1;whiteSpace=wrap;html=1;" vertex="1" parent="1">
          <mxGeometry x="120" y="120" width="120" height="40" as="geometry" />
        </mxCell>
        <mxCell id="OJxwPTO8iqBb-8ecXSKR-156" style="edgeStyle=orthogonalEdgeStyle;rounded=0;orthogonalLoop=1;jettySize=auto;html=1;exitX=1;exitY=0.5;exitDx=0;exitDy=0;entryX=0;entryY=0.5;entryDx=0;entryDy=0;" edge="1" parent="1" source="OJxwPTO8iqBb-8ecXSKR-35" target="OJxwPTO8iqBb-8ecXSKR-148">
          <mxGeometry relative="1" as="geometry" />
        </mxCell>
        <mxCell id="OJxwPTO8iqBb-8ecXSKR-35" value="listar prestatarios por préstamo" style="rounded=1;whiteSpace=wrap;html=1;" vertex="1" parent="1">
          <mxGeometry x="120" y="200" width="120" height="40" as="geometry" />
        </mxCell>
        <mxCell id="OJxwPTO8iqBb-8ecXSKR-45" style="edgeStyle=orthogonalEdgeStyle;rounded=0;orthogonalLoop=1;jettySize=auto;html=1;exitX=1;exitY=0.5;exitDx=0;exitDy=0;entryX=0;entryY=0.5;entryDx=0;entryDy=0;" edge="1" parent="1" source="OJxwPTO8iqBb-8ecXSKR-36" target="OJxwPTO8iqBb-8ecXSKR-37">
          <mxGeometry relative="1" as="geometry" />
        </mxCell>
        <mxCell id="OJxwPTO8iqBb-8ecXSKR-36" value="recuperar lista prestatarios" style="rounded=1;whiteSpace=wrap;html=1;" vertex="1" parent="1">
          <mxGeometry x="320" y="600" width="120" height="40" as="geometry" />
        </mxCell>
        <mxCell id="OJxwPTO8iqBb-8ecXSKR-46" style="edgeStyle=orthogonalEdgeStyle;rounded=0;orthogonalLoop=1;jettySize=auto;html=1;exitX=0.5;exitY=1;exitDx=0;exitDy=0;entryX=1;entryY=0.5;entryDx=0;entryDy=0;" edge="1" parent="1" source="OJxwPTO8iqBb-8ecXSKR-37" target="OJxwPTO8iqBb-8ecXSKR-39">
          <mxGeometry relative="1" as="geometry" />
        </mxCell>
        <mxCell id="OJxwPTO8iqBb-8ecXSKR-37" value="recuperar prestatarios que coincidan" style="rounded=1;whiteSpace=wrap;html=1;" vertex="1" parent="1">
          <mxGeometry x="520" y="600" width="120" height="40" as="geometry" />
        </mxCell>
        <mxCell id="OJxwPTO8iqBb-8ecXSKR-47" style="edgeStyle=orthogonalEdgeStyle;rounded=0;orthogonalLoop=1;jettySize=auto;html=1;exitX=0;exitY=0.5;exitDx=0;exitDy=0;entryX=1;entryY=0.5;entryDx=0;entryDy=0;" edge="1" parent="1" source="OJxwPTO8iqBb-8ecXSKR-38" target="OJxwPTO8iqBb-8ecXSKR-41">
          <mxGeometry relative="1" as="geometry" />
        </mxCell>
        <mxCell id="OJxwPTO8iqBb-8ecXSKR-49" style="edgeStyle=orthogonalEdgeStyle;rounded=0;orthogonalLoop=1;jettySize=auto;html=1;exitX=0.5;exitY=1;exitDx=0;exitDy=0;entryX=1;entryY=0.5;entryDx=0;entryDy=0;" edge="1" parent="1" source="OJxwPTO8iqBb-8ecXSKR-38" target="OJxwPTO8iqBb-8ecXSKR-42">
          <mxGeometry relative="1" as="geometry" />
        </mxCell>
        <mxCell id="OJxwPTO8iqBb-8ecXSKR-38" value="" style="rhombus;whiteSpace=wrap;html=1;" vertex="1" parent="1">
          <mxGeometry x="360" y="760" width="40" height="40" as="geometry" />
        </mxCell>
        <mxCell id="OJxwPTO8iqBb-8ecXSKR-143" style="edgeStyle=orthogonalEdgeStyle;rounded=0;orthogonalLoop=1;jettySize=auto;html=1;exitX=0.5;exitY=1;exitDx=0;exitDy=0;entryX=0.5;entryY=0;entryDx=0;entryDy=0;" edge="1" parent="1" source="OJxwPTO8iqBb-8ecXSKR-39" target="OJxwPTO8iqBb-8ecXSKR-38">
          <mxGeometry relative="1" as="geometry" />
        </mxCell>
        <mxCell id="OJxwPTO8iqBb-8ecXSKR-39" value="comprobar lista" style="rounded=1;whiteSpace=wrap;html=1;" vertex="1" parent="1">
          <mxGeometry x="320" y="680" width="120" height="40" as="geometry" />
        </mxCell>
        <mxCell id="OJxwPTO8iqBb-8ecXSKR-145" style="edgeStyle=orthogonalEdgeStyle;rounded=0;orthogonalLoop=1;jettySize=auto;html=1;exitX=0;exitY=0.5;exitDx=0;exitDy=0;entryX=0;entryY=0.5;entryDx=0;entryDy=0;" edge="1" parent="1" source="OJxwPTO8iqBb-8ecXSKR-41" target="OJxwPTO8iqBb-8ecXSKR-11">
          <mxGeometry relative="1" as="geometry" />
        </mxCell>
        <mxCell id="OJxwPTO8iqBb-8ecXSKR-41" value="informar lista vacia" style="rounded=1;whiteSpace=wrap;html=1;" vertex="1" parent="1">
          <mxGeometry x="120" y="760" width="120" height="40" as="geometry" />
        </mxCell>
        <mxCell id="OJxwPTO8iqBb-8ecXSKR-147" style="edgeStyle=orthogonalEdgeStyle;rounded=0;orthogonalLoop=1;jettySize=auto;html=1;exitX=0.5;exitY=1;exitDx=0;exitDy=0;entryX=0.5;entryY=0;entryDx=0;entryDy=0;" edge="1" parent="1" source="OJxwPTO8iqBb-8ecXSKR-42" target="OJxwPTO8iqBb-8ecXSKR-11">
          <mxGeometry relative="1" as="geometry" />
        </mxCell>
        <mxCell id="OJxwPTO8iqBb-8ecXSKR-42" value="mostrar lista" style="rounded=1;whiteSpace=wrap;html=1;" vertex="1" parent="1">
          <mxGeometry x="120" y="840" width="120" height="40" as="geometry" />
        </mxCell>
        <mxCell id="OJxwPTO8iqBb-8ecXSKR-134" style="edgeStyle=orthogonalEdgeStyle;rounded=0;orthogonalLoop=1;jettySize=auto;html=1;exitX=0.5;exitY=1;exitDx=0;exitDy=0;entryX=0.5;entryY=0;entryDx=0;entryDy=0;" edge="1" parent="1" source="OJxwPTO8iqBb-8ecXSKR-128" target="OJxwPTO8iqBb-8ecXSKR-129">
          <mxGeometry relative="1" as="geometry" />
        </mxCell>
        <mxCell id="OJxwPTO8iqBb-8ecXSKR-128" value="mostrar formulario" style="rounded=1;whiteSpace=wrap;html=1;" vertex="1" parent="1">
          <mxGeometry x="120" y="440" width="120" height="40" as="geometry" />
        </mxCell>
        <mxCell id="OJxwPTO8iqBb-8ecXSKR-135" style="edgeStyle=orthogonalEdgeStyle;rounded=0;orthogonalLoop=1;jettySize=auto;html=1;exitX=0.5;exitY=1;exitDx=0;exitDy=0;entryX=0.5;entryY=0;entryDx=0;entryDy=0;" edge="1" parent="1" source="OJxwPTO8iqBb-8ecXSKR-129" target="OJxwPTO8iqBb-8ecXSKR-130">
          <mxGeometry relative="1" as="geometry" />
        </mxCell>
        <mxCell id="OJxwPTO8iqBb-8ecXSKR-129" value="seleccionar prestamo" style="rounded=1;whiteSpace=wrap;html=1;" vertex="1" parent="1">
          <mxGeometry x="120" y="520" width="120" height="40" as="geometry" />
        </mxCell>
        <mxCell id="OJxwPTO8iqBb-8ecXSKR-163" style="edgeStyle=orthogonalEdgeStyle;rounded=0;orthogonalLoop=1;jettySize=auto;html=1;exitX=1;exitY=0.5;exitDx=0;exitDy=0;entryX=0;entryY=0.5;entryDx=0;entryDy=0;" edge="1" parent="1" source="OJxwPTO8iqBb-8ecXSKR-130" target="OJxwPTO8iqBb-8ecXSKR-36">
          <mxGeometry relative="1" as="geometry" />
        </mxCell>
        <mxCell id="OJxwPTO8iqBb-8ecXSKR-130" value="confirmar formulario" style="rounded=1;whiteSpace=wrap;html=1;" vertex="1" parent="1">
          <mxGeometry x="120" y="600" width="120" height="40" as="geometry" />
        </mxCell>
        <mxCell id="OJxwPTO8iqBb-8ecXSKR-157" style="edgeStyle=orthogonalEdgeStyle;rounded=0;orthogonalLoop=1;jettySize=auto;html=1;exitX=1;exitY=0.5;exitDx=0;exitDy=0;entryX=0;entryY=0.5;entryDx=0;entryDy=0;" edge="1" parent="1" source="OJxwPTO8iqBb-8ecXSKR-148" target="OJxwPTO8iqBb-8ecXSKR-152">
          <mxGeometry relative="1" as="geometry" />
        </mxCell>
        <mxCell id="OJxwPTO8iqBb-8ecXSKR-148" value="recuperar lista prestamos" style="rounded=1;whiteSpace=wrap;html=1;" vertex="1" parent="1">
          <mxGeometry x="320" y="200" width="120" height="40" as="geometry" />
        </mxCell>
        <mxCell id="OJxwPTO8iqBb-8ecXSKR-160" style="edgeStyle=orthogonalEdgeStyle;rounded=0;orthogonalLoop=1;jettySize=auto;html=1;exitX=0;exitY=0.5;exitDx=0;exitDy=0;entryX=1;entryY=0.5;entryDx=0;entryDy=0;" edge="1" parent="1" source="OJxwPTO8iqBb-8ecXSKR-149" target="OJxwPTO8iqBb-8ecXSKR-151">
          <mxGeometry relative="1" as="geometry" />
        </mxCell>
        <mxCell id="OJxwPTO8iqBb-8ecXSKR-165" style="edgeStyle=orthogonalEdgeStyle;rounded=0;orthogonalLoop=1;jettySize=auto;html=1;exitX=0.5;exitY=1;exitDx=0;exitDy=0;entryX=1;entryY=0.5;entryDx=0;entryDy=0;" edge="1" parent="1" source="OJxwPTO8iqBb-8ecXSKR-149" target="OJxwPTO8iqBb-8ecXSKR-128">
          <mxGeometry relative="1" as="geometry" />
        </mxCell>
        <mxCell id="OJxwPTO8iqBb-8ecXSKR-149" value="" style="rhombus;whiteSpace=wrap;html=1;" vertex="1" parent="1">
          <mxGeometry x="360" y="360" width="40" height="40" as="geometry" />
        </mxCell>
        <mxCell id="OJxwPTO8iqBb-8ecXSKR-164" style="edgeStyle=orthogonalEdgeStyle;rounded=0;orthogonalLoop=1;jettySize=auto;html=1;exitX=0;exitY=0.5;exitDx=0;exitDy=0;entryX=0.5;entryY=1;entryDx=0;entryDy=0;" edge="1" parent="1" source="OJxwPTO8iqBb-8ecXSKR-151" target="OJxwPTO8iqBb-8ecXSKR-11">
          <mxGeometry relative="1" as="geometry">
            <Array as="points">
              <mxPoint x="80" y="380" />
              <mxPoint x="80" y="960" />
              <mxPoint x="180" y="960" />
            </Array>
          </mxGeometry>
        </mxCell>
        <mxCell id="OJxwPTO8iqBb-8ecXSKR-151" value="informar lista vacia" style="rounded=1;whiteSpace=wrap;html=1;" vertex="1" parent="1">
          <mxGeometry x="120" y="360" width="120" height="40" as="geometry" />
        </mxCell>
        <mxCell id="OJxwPTO8iqBb-8ecXSKR-158" style="edgeStyle=orthogonalEdgeStyle;rounded=0;orthogonalLoop=1;jettySize=auto;html=1;exitX=0.5;exitY=1;exitDx=0;exitDy=0;entryX=1;entryY=0.5;entryDx=0;entryDy=0;" edge="1" parent="1" source="OJxwPTO8iqBb-8ecXSKR-152" target="OJxwPTO8iqBb-8ecXSKR-153">
          <mxGeometry relative="1" as="geometry" />
        </mxCell>
        <mxCell id="OJxwPTO8iqBb-8ecXSKR-152" value="recuperar prestamos" style="rounded=1;whiteSpace=wrap;html=1;" vertex="1" parent="1">
          <mxGeometry x="520" y="200" width="120" height="40" as="geometry" />
        </mxCell>
        <mxCell id="OJxwPTO8iqBb-8ecXSKR-159" style="edgeStyle=orthogonalEdgeStyle;rounded=0;orthogonalLoop=1;jettySize=auto;html=1;exitX=0.5;exitY=1;exitDx=0;exitDy=0;entryX=0.5;entryY=0;entryDx=0;entryDy=0;" edge="1" parent="1" source="OJxwPTO8iqBb-8ecXSKR-153" target="OJxwPTO8iqBb-8ecXSKR-149">
          <mxGeometry relative="1" as="geometry" />
        </mxCell>
        <mxCell id="OJxwPTO8iqBb-8ecXSKR-153" value="comprobar lista" style="rounded=1;whiteSpace=wrap;html=1;" vertex="1" parent="1">
          <mxGeometry x="320" y="280" width="120" height="40" as="geometry" />
        </mxCell>
      </root>
    </mxGraphModel>
  </diagram>
</mxfile>
